<svg width="9" height="14" viewBox="0 0 9 14" fill="none" xmlns="http://www.w3.org/2000/svg">
<path fill-rule="evenodd" clip-rule="evenodd" d="M6.88371 13.5144L1.09314 8.11732L1.04334 8.08077L0.99747 8.03735L0.915342 7.94925L0.159076 7.24355C0.0634037 7.15433 0.0105742 7.03637 0.00148797 6.91546L0.00288926 6.82462C-0.0101381 6.70395 0.0209309 6.57942 0.0952453 6.47721L0.159076 6.40514L0.921342 5.69525L0.99747 5.61134C1.02688 5.5798 1.05941 5.55292 1.09414 5.53073L6.88371 0.134325C7.06322 -0.0330782 7.33316 -0.0429488 7.52319 0.0987658L7.59038 0.159003L8.45345 1.08453C8.62086 1.26405 8.63073 1.53399 8.48901 1.72402L8.42878 1.79121L3.03134 6.82425L8.42878 11.8575C8.63073 12.0458 8.64178 12.3622 8.45345 12.5642L7.59038 13.4897C7.40205 13.6916 7.08566 13.7027 6.88371 13.5144Z" fill="#2A322F"/>
</svg>
